<svg width="55" height="63" viewBox="0 0 55 63" fill="none" xmlns="http://www.w3.org/2000/svg">
<ellipse cx="6.5" cy="6.49998" rx="6.5" ry="6.49998" transform="matrix(1 0 -5.06197e-06 1 0 25)" fill="#291271"/>
<circle cx="20.5" cy="6.5" r="6.5" fill="#291271"/>
<rect width="5" height="25" transform="matrix(0.866027 0.499998 -0.500002 0.866024 16 9)" fill="#291271"/>
<rect width="5" height="25" transform="matrix(-0.866027 0.499998 0.500002 0.866024 24.3301 8)" fill="#291271"/>
<ellipse cx="6.5" cy="6.49998" rx="6.5" ry="6.49998" transform="matrix(1 0 -5.06167e-06 -1 28 38)" fill="#291271"/>
<ellipse cx="6.5" cy="6.49998" rx="6.5" ry="6.49998" transform="matrix(1 0 -5.06197e-06 -1 14 38)" fill="#291271"/>
<circle cx="6.5" cy="6.5" r="6.5" transform="matrix(1 0 0 -1 28 63)" fill="#291271"/>
<rect width="5" height="25" transform="matrix(0.866027 -0.499998 -0.500002 -0.866024 30 54)" fill="#291271"/>
<rect width="5" height="25" transform="matrix(-0.866027 -0.499998 0.500002 -0.866024 38.3301 55)" fill="#291271"/>
<ellipse cx="6.5" cy="6.49998" rx="6.5" ry="6.49998" transform="matrix(1 0 -5.06167e-06 1 42 25)" fill="#291271"/>
</svg>
