<svg width="56" height="59" viewBox="0 0 56 59" fill="none" xmlns="http://www.w3.org/2000/svg">
<rect width="6.71018" height="26.8404" rx="3.35509" transform="matrix(0.848025 0.529957 0.529953 -0.848027 3.86523 27.6994)" fill="#291271"/>
<ellipse cx="6.71014" cy="29.4778" rx="6.71014" ry="6.71009" fill="#291271"/>
<rect width="6.71018" height="26.8404" rx="3.35509" transform="matrix(-0.848025 0.529957 -0.529953 -0.848027 37.957 27.6931)" fill="#291271"/>
<ellipse cx="6.71014" cy="6.71009" rx="6.71014" ry="6.71009" transform="matrix(1 0 0 -1 28.402 36.1814)" fill="#291271"/>
<ellipse cx="6.71014" cy="6.71009" rx="6.71014" ry="6.71009" transform="matrix(1 0 0 -1 14.1777 13.4203)" fill="#291271"/>
<rect width="6.71018" height="26.8404" rx="3.35509" transform="matrix(-0.848025 -0.529957 -0.529953 0.848027 52.1347 31.3027)" fill="#291271"/>
<ellipse cx="49.2899" cy="29.525" rx="6.71014" ry="6.71009" fill="#291271"/>
<rect width="6.71018" height="26.8404" rx="3.35509" transform="matrix(0.848025 -0.529957 0.529953 0.848027 18.0428 31.3095)" fill="#291271"/>
<ellipse cx="6.71014" cy="6.71009" rx="6.71014" ry="6.71009" transform="matrix(1 0 0 -1 14.1776 36.241)" fill="#291271"/>
<ellipse cx="6.71014" cy="6.71009" rx="6.71014" ry="6.71009" transform="matrix(1 0 0 -1 28.402 59.0026)" fill="#291271"/>
</svg>
