<svg width="141" height="101" viewBox="0 0 141 101" fill="none" xmlns="http://www.w3.org/2000/svg">
<rect x="50.9999" y="61" width="90.0001" height="40" rx="20" fill="#37A8CE"/>
<ellipse cx="40.0001" cy="40" rx="40.0001" ry="40" fill="#291271"/>
<rect width="6.71017" height="26.8404" rx="3.35509" transform="matrix(0.848024 0.529957 0.529952 -0.848027 15.8652 37.6994)" fill="#37A8CE"/>
<ellipse cx="18.7101" cy="39.4778" rx="6.71013" ry="6.71009" fill="#37A8CE"/>
<rect width="6.71017" height="26.8404" rx="3.35509" transform="matrix(-0.848024 0.529957 -0.529952 -0.848027 49.9569 37.6931)" fill="#37A8CE"/>
<ellipse cx="6.71013" cy="6.71009" rx="6.71013" ry="6.71009" transform="matrix(1 0 0 -1 40.402 46.1814)" fill="#37A8CE"/>
<ellipse cx="6.71013" cy="6.71009" rx="6.71013" ry="6.71009" transform="matrix(1 0 0 -1 26.1777 23.4203)" fill="#37A8CE"/>
<rect width="6.71017" height="26.8404" rx="3.35509" transform="matrix(-0.848024 -0.529957 -0.529952 0.848027 64.1346 41.3027)" fill="#37A8CE"/>
<ellipse cx="61.2898" cy="39.5249" rx="6.71013" ry="6.71009" fill="#37A8CE"/>
<rect width="6.71017" height="26.8404" rx="3.35509" transform="matrix(0.848025 -0.529957 0.529952 0.848027 30.0428 41.3095)" fill="#37A8CE"/>
<ellipse cx="6.71013" cy="6.71009" rx="6.71013" ry="6.71009" transform="matrix(1 0 0 -1 26.1777 46.241)" fill="#37A8CE"/>
<ellipse cx="6.71013" cy="6.71009" rx="6.71013" ry="6.71009" transform="matrix(1 0 0 -1 40.4019 69.0026)" fill="#37A8CE"/>
<path d="M63.6242 89.0001C63.4802 89.0001 63.3522 88.9521 63.2402 88.8561C63.1442 88.7441 63.0962 88.6161 63.0962 88.4721C63.0962 88.4081 63.1122 88.3521 63.1442 88.3041L68.6162 72.9441C68.6642 72.7681 68.7682 72.6001 68.9282 72.4401C69.1042 72.2801 69.3362 72.2001 69.6242 72.2001H74.0162C74.3202 72.2001 74.5522 72.2801 74.7122 72.4401C74.8722 72.6001 74.9762 72.7681 75.0242 72.9441L80.5202 88.3041C80.5362 88.3521 80.5442 88.4081 80.5442 88.4721C80.5442 88.6161 80.4882 88.7441 80.3762 88.8561C80.2802 88.9521 80.1602 89.0001 80.0162 89.0001H76.3202C76.0482 89.0001 75.8482 88.9361 75.7202 88.8081C75.5922 88.6801 75.5042 88.5601 75.4562 88.4481L74.7122 86.4321H68.9282L68.1842 88.4481C68.1362 88.5601 68.0482 88.6801 67.9202 88.8081C67.8082 88.9361 67.6082 89.0001 67.3202 89.0001H63.6242ZM70.0322 82.3761H73.6082L71.8082 76.9761L70.0322 82.3761ZM82.5207 89.0001C82.3447 89.0001 82.1927 88.9441 82.0647 88.8321C81.9527 88.7041 81.8967 88.5521 81.8967 88.3761V77.1441C81.8967 76.9681 81.9527 76.8241 82.0647 76.7121C82.1927 76.5841 82.3447 76.5201 82.5207 76.5201H86.0007C86.1767 76.5201 86.3207 76.5841 86.4327 76.7121C86.5607 76.8241 86.6247 76.9681 86.6247 77.1441V78.0321C87.1047 77.5681 87.6487 77.2001 88.2567 76.9281C88.8807 76.6561 89.5607 76.5201 90.2967 76.5201H91.3767C91.5527 76.5201 91.7047 76.5841 91.8327 76.7121C91.9607 76.8241 92.0247 76.9681 92.0247 77.1441V80.2401C92.0247 80.4161 91.9607 80.5681 91.8327 80.6961C91.7047 80.8241 91.5527 80.8881 91.3767 80.8881H88.6887C88.1127 80.8881 87.6727 81.0401 87.3687 81.3441C87.0647 81.6321 86.9127 82.0641 86.9127 82.6401V88.3761C86.9127 88.5521 86.8487 88.7041 86.7207 88.8321C86.6087 88.9441 86.4647 89.0001 86.2887 89.0001H82.5207ZM94.1926 89.0001C94.0166 89.0001 93.8646 88.9441 93.7366 88.8321C93.6246 88.7041 93.5686 88.5521 93.5686 88.3761V72.5841C93.5686 72.4081 93.6246 72.2641 93.7366 72.1521C93.8646 72.0241 94.0166 71.9601 94.1926 71.9601H97.6726C97.8486 71.9601 97.9926 72.0241 98.1046 72.1521C98.2326 72.2641 98.2966 72.4081 98.2966 72.5841V80.5041L101.033 76.9281C101.097 76.8481 101.185 76.7601 101.297 76.6641C101.409 76.5681 101.569 76.5201 101.777 76.5201H105.809C105.969 76.5201 106.097 76.5761 106.193 76.6881C106.305 76.7841 106.361 76.9121 106.361 77.0721C106.361 77.1361 106.345 77.2081 106.313 77.2881C106.297 77.3681 106.265 77.4241 106.217 77.4561L102.401 82.1361L106.817 88.0881C106.897 88.2161 106.937 88.3361 106.937 88.4481C106.937 88.6081 106.881 88.7441 106.769 88.8561C106.673 88.9521 106.545 89.0001 106.385 89.0001H102.209C101.969 89.0001 101.793 88.9521 101.681 88.8561C101.585 88.7441 101.497 88.6561 101.417 88.5921L98.2966 84.2721V88.3761C98.2966 88.5521 98.2326 88.7041 98.1046 88.8321C97.9926 88.9441 97.8486 89.0001 97.6726 89.0001H94.1926ZM108.935 89.0001C108.759 89.0001 108.607 88.9441 108.479 88.8321C108.367 88.7041 108.311 88.5521 108.311 88.3761V77.1441C108.311 76.9681 108.367 76.8241 108.479 76.7121C108.607 76.5841 108.759 76.5201 108.935 76.5201H112.487C112.663 76.5201 112.815 76.5841 112.943 76.7121C113.071 76.8241 113.135 76.9681 113.135 77.1441V88.3761C113.135 88.5521 113.071 88.7041 112.943 88.8321C112.815 88.9441 112.663 89.0001 112.487 89.0001H108.935ZM108.983 74.9601C108.807 74.9601 108.655 74.9041 108.527 74.7921C108.415 74.6641 108.359 74.5121 108.359 74.3361V71.8161C108.359 71.6401 108.415 71.4881 108.527 71.3601C108.655 71.2321 108.807 71.1681 108.983 71.1681H112.439C112.615 71.1681 112.767 71.2321 112.895 71.3601C113.023 71.4881 113.087 71.6401 113.087 71.8161V74.3361C113.087 74.5121 113.023 74.6641 112.895 74.7921C112.767 74.9041 112.615 74.9601 112.439 74.9601H108.983ZM120.112 89.0001C119.856 89.0001 119.672 88.9361 119.56 88.8081C119.464 88.6801 119.376 88.5441 119.296 88.4001L114.712 77.2641C114.696 77.2001 114.688 77.1361 114.688 77.0721C114.688 76.9281 114.744 76.8001 114.856 76.6881C114.968 76.5761 115.096 76.5201 115.24 76.5201H118.648C118.872 76.5201 119.04 76.5841 119.152 76.7121C119.264 76.8241 119.344 76.9361 119.392 77.0481L121.696 83.5521L124.024 77.0481C124.072 76.9361 124.152 76.8241 124.264 76.7121C124.376 76.5841 124.544 76.5201 124.768 76.5201H128.152C128.312 76.5201 128.44 76.5761 128.536 76.6881C128.648 76.8001 128.704 76.9281 128.704 77.0721C128.704 77.1361 128.696 77.2001 128.68 77.2641L124.12 88.4001C124.056 88.5441 123.96 88.6801 123.832 88.8081C123.72 88.9361 123.544 89.0001 123.304 89.0001H120.112Z" fill="#291271"/>
</svg>
