<svg width="98" height="71" viewBox="0 0 98 71" fill="none" xmlns="http://www.w3.org/2000/svg">
<rect x="35.4468" y="42.397" width="62.5531" height="27.8014" rx="13.9007" fill="#37A8CE"/>
<ellipse cx="27.8014" cy="27.8014" rx="27.8014" ry="27.8014" fill="#291271"/>
<rect width="4.6638" height="18.655" rx="2.3319" transform="matrix(0.848024 0.529959 0.529951 -0.848028 11.6865 26.2524)" fill="#37A8CE"/>
<ellipse cx="13.6638" cy="27.4885" rx="4.66377" ry="4.66375" fill="#37A8CE"/>
<rect width="4.6638" height="18.655" rx="2.3319" transform="matrix(-0.848024 0.529959 -0.529951 -0.848028 35.3813 26.248)" fill="#37A8CE"/>
<ellipse cx="4.66377" cy="4.66375" rx="4.66377" ry="4.66375" transform="matrix(1 0 0 -1 28.7402 32.1479)" fill="#37A8CE"/>
<ellipse cx="4.66377" cy="4.66375" rx="4.66377" ry="4.66375" transform="matrix(1 0 0 -1 18.8545 16.3276)" fill="#37A8CE"/>
<rect width="4.6638" height="18.655" rx="2.3319" transform="matrix(-0.848024 -0.529959 -0.529951 0.848028 45.2358 28.7568)" fill="#37A8CE"/>
<ellipse cx="43.258" cy="27.5207" rx="4.66377" ry="4.66375" fill="#37A8CE"/>
<rect width="4.6638" height="18.655" rx="2.3319" transform="matrix(0.848024 -0.529959 0.529951 0.848028 21.5405 28.7617)" fill="#37A8CE"/>
<ellipse cx="4.66377" cy="4.66375" rx="4.66377" ry="4.66375" transform="matrix(1 0 0 -1 18.8545 32.1895)" fill="#37A8CE"/>
<ellipse cx="4.66377" cy="4.66375" rx="4.66377" ry="4.66375" transform="matrix(1 0 0 -1 28.7402 48.0093)" fill="#37A8CE"/>
<path d="M44.416 61C44.32 61 44.2347 60.968 44.16 60.904C44.096 60.8293 44.064 60.744 44.064 60.648C44.064 60.6053 44.0747 60.568 44.096 60.536L47.744 50.296C47.776 50.1787 47.8453 50.0667 47.952 49.96C48.0693 49.8533 48.224 49.8 48.416 49.8H51.344C51.5467 49.8 51.7013 49.8533 51.808 49.96C51.9147 50.0667 51.984 50.1787 52.016 50.296L55.68 60.536C55.6907 60.568 55.696 60.6053 55.696 60.648C55.696 60.744 55.6587 60.8293 55.584 60.904C55.52 60.968 55.44 61 55.344 61H52.88C52.6987 61 52.5653 60.9573 52.48 60.872C52.3947 60.7867 52.336 60.7067 52.304 60.632L51.808 59.288H47.952L47.456 60.632C47.424 60.7067 47.3653 60.7867 47.28 60.872C47.2053 60.9573 47.072 61 46.88 61H44.416ZM48.688 56.584H51.072L49.872 52.984L48.688 56.584ZM57.0136 61C56.8963 61 56.795 60.9627 56.7096 60.888C56.635 60.8027 56.5976 60.7013 56.5976 60.584V53.096C56.5976 52.9787 56.635 52.8827 56.7096 52.808C56.795 52.7227 56.8963 52.68 57.0136 52.68H59.3336C59.451 52.68 59.547 52.7227 59.6216 52.808C59.707 52.8827 59.7496 52.9787 59.7496 53.096V53.688C60.0696 53.3787 60.4323 53.1333 60.8376 52.952C61.2536 52.7707 61.707 52.68 62.1976 52.68H62.9176C63.035 52.68 63.1363 52.7227 63.2216 52.808C63.307 52.8827 63.3496 52.9787 63.3496 53.096V55.16C63.3496 55.2773 63.307 55.3787 63.2216 55.464C63.1363 55.5493 63.035 55.592 62.9176 55.592H61.1256C60.7416 55.592 60.4483 55.6933 60.2456 55.896C60.043 56.088 59.9416 56.376 59.9416 56.76V60.584C59.9416 60.7013 59.899 60.8027 59.8136 60.888C59.739 60.9627 59.643 61 59.5256 61H57.0136ZM64.7949 61C64.6775 61 64.5762 60.9627 64.4909 60.888C64.4162 60.8027 64.3789 60.7013 64.3789 60.584V50.056C64.3789 49.9387 64.4162 49.8427 64.4909 49.768C64.5762 49.6827 64.6775 49.64 64.7949 49.64H67.1149C67.2322 49.64 67.3282 49.6827 67.4029 49.768C67.4882 49.8427 67.5309 49.9387 67.5309 50.056V55.336L69.3549 52.952C69.3975 52.8987 69.4562 52.84 69.5309 52.776C69.6055 52.712 69.7122 52.68 69.8509 52.68H72.5389C72.6455 52.68 72.7309 52.7173 72.7949 52.792C72.8695 52.856 72.9069 52.9413 72.9069 53.048C72.9069 53.0907 72.8962 53.1387 72.8749 53.192C72.8642 53.2453 72.8429 53.2827 72.8109 53.304L70.2669 56.424L73.2109 60.392C73.2642 60.4773 73.2909 60.5573 73.2909 60.632C73.2909 60.7387 73.2535 60.8293 73.1789 60.904C73.1149 60.968 73.0295 61 72.9229 61H70.1389C69.9789 61 69.8615 60.968 69.7869 60.904C69.7229 60.8293 69.6642 60.7707 69.6109 60.728L67.5309 57.848V60.584C67.5309 60.7013 67.4882 60.8027 67.4029 60.888C67.3282 60.9627 67.2322 61 67.1149 61H64.7949ZM74.623 61C74.5057 61 74.4043 60.9627 74.319 60.888C74.2443 60.8027 74.207 60.7013 74.207 60.584V53.096C74.207 52.9787 74.2443 52.8827 74.319 52.808C74.4043 52.7227 74.5057 52.68 74.623 52.68H76.991C77.1083 52.68 77.2097 52.7227 77.295 52.808C77.3803 52.8827 77.423 52.9787 77.423 53.096V60.584C77.423 60.7013 77.3803 60.8027 77.295 60.888C77.2097 60.9627 77.1083 61 76.991 61H74.623ZM74.655 51.64C74.5377 51.64 74.4363 51.6027 74.351 51.528C74.2763 51.4427 74.239 51.3413 74.239 51.224V49.544C74.239 49.4267 74.2763 49.3253 74.351 49.24C74.4363 49.1547 74.5377 49.112 74.655 49.112H76.959C77.0763 49.112 77.1777 49.1547 77.263 49.24C77.3483 49.3253 77.391 49.4267 77.391 49.544V51.224C77.391 51.3413 77.3483 51.4427 77.263 51.528C77.1777 51.6027 77.0763 51.64 76.959 51.64H74.655ZM82.0744 61C81.9037 61 81.781 60.9573 81.7064 60.872C81.6424 60.7867 81.5837 60.696 81.5304 60.6L78.4744 53.176C78.4637 53.1333 78.4584 53.0907 78.4584 53.048C78.4584 52.952 78.4957 52.8667 78.5704 52.792C78.645 52.7173 78.7304 52.68 78.8264 52.68H81.0984C81.2477 52.68 81.3597 52.7227 81.4344 52.808C81.509 52.8827 81.5624 52.9573 81.5944 53.032L83.1304 57.368L84.6824 53.032C84.7144 52.9573 84.7677 52.8827 84.8424 52.808C84.917 52.7227 85.029 52.68 85.1784 52.68H87.4344C87.541 52.68 87.6264 52.7173 87.6904 52.792C87.765 52.8667 87.8024 52.952 87.8024 53.048C87.8024 53.0907 87.797 53.1333 87.7864 53.176L84.7464 60.6C84.7037 60.696 84.6397 60.7867 84.5544 60.872C84.4797 60.9573 84.3624 61 84.2024 61H82.0744Z" fill="#291271"/>
</svg>
