<svg width="485" height="510" viewBox="0 0 485 510" fill="none" xmlns="http://www.w3.org/2000/svg">
<rect width="57.9974" height="231.986" rx="28.9987" transform="matrix(0.848026 0.529955 0.529954 -0.848026 33.4089 239.411)" fill="#291271"/>
<ellipse cx="57.9971" cy="254.782" rx="57.9971" ry="57.9964" fill="#291271"/>
<rect x="328.073" y="239.357" width="57.9974" height="231.986" rx="28.9987" transform="rotate(147.998 328.073 239.357)" fill="#291271"/>
<ellipse cx="57.9971" cy="57.9964" rx="57.9971" ry="57.9964" transform="matrix(1 0 0 -1 245.483 312.722)" fill="#291271"/>
<ellipse cx="57.9971" cy="57.9964" rx="57.9971" ry="57.9964" transform="matrix(1 0 0 -1 122.543 115.993)" fill="#291271"/>
<rect width="57.9974" height="231.986" rx="28.9987" transform="matrix(-0.848026 -0.529955 -0.529954 0.848026 450.615 270.554)" fill="#291271"/>
<ellipse cx="426.022" cy="255.189" rx="57.9971" ry="57.9964" fill="#291271"/>
<rect x="155.949" y="270.613" width="57.9974" height="231.986" rx="28.9987" transform="rotate(-32.0024 155.949 270.613)" fill="#291271"/>
<ellipse cx="57.9971" cy="57.9964" rx="57.9971" ry="57.9964" transform="matrix(1 0 0 -1 122.543 313.236)" fill="#291271"/>
<ellipse cx="57.9971" cy="57.9964" rx="57.9971" ry="57.9964" transform="matrix(1 0 0 -1 245.483 509.97)" fill="#291271"/>
</svg>
