<svg width="720" height="1024" viewBox="0 0 720 1024" fill="none" xmlns="http://www.w3.org/2000/svg">
<path d="M-240 1472C-113.931 1472 10.9035 1447.17 127.376 1398.92C243.849 1350.68 349.678 1279.97 438.823 1190.82C527.967 1101.68 598.68 995.849 646.924 879.376C695.169 762.904 720 638.069 720 512C720 385.931 695.169 261.096 646.924 144.624C598.68 28.1513 527.967 -77.6783 438.823 -166.822C349.678 -255.967 243.849 -326.68 127.376 -374.924C10.9036 -423.169 -113.931 -448 -240 -448L-240 512L-240 1472Z" fill="#37A8CE"/>
<path d="M15.936 49C15.72 49 15.528 48.928 15.36 48.784C15.216 48.616 15.144 48.424 15.144 48.208C15.144 48.112 15.168 48.028 15.216 47.956L23.424 24.916C23.496 24.652 23.652 24.4 23.892 24.16C24.156 23.92 24.504 23.8 24.936 23.8H31.524C31.98 23.8 32.328 23.92 32.568 24.16C32.808 24.4 32.964 24.652 33.036 24.916L41.28 47.956C41.304 48.028 41.316 48.112 41.316 48.208C41.316 48.424 41.232 48.616 41.064 48.784C40.92 48.928 40.74 49 40.524 49H34.98C34.572 49 34.272 48.904 34.08 48.712C33.888 48.52 33.756 48.34 33.684 48.172L32.568 45.148H23.892L22.776 48.172C22.704 48.34 22.572 48.52 22.38 48.712C22.212 48.904 21.912 49 21.48 49H15.936ZM25.548 39.064H30.912L28.212 30.964L25.548 39.064ZM44.2807 49C44.0167 49 43.7887 48.916 43.5967 48.748C43.4287 48.556 43.3447 48.328 43.3447 48.064V31.216C43.3447 30.952 43.4287 30.736 43.5967 30.568C43.7887 30.376 44.0167 30.28 44.2807 30.28H49.5007C49.7647 30.28 49.9807 30.376 50.1487 30.568C50.3407 30.736 50.4367 30.952 50.4367 31.216V32.548C51.1567 31.852 51.9727 31.3 52.8847 30.892C53.8207 30.484 54.8407 30.28 55.9447 30.28H57.5647C57.8287 30.28 58.0567 30.376 58.2487 30.568C58.4407 30.736 58.5367 30.952 58.5367 31.216V35.86C58.5367 36.124 58.4407 36.352 58.2487 36.544C58.0567 36.736 57.8287 36.832 57.5647 36.832H53.5327C52.6687 36.832 52.0087 37.06 51.5527 37.516C51.0967 37.948 50.8687 38.596 50.8687 39.46V48.064C50.8687 48.328 50.7727 48.556 50.5807 48.748C50.4127 48.916 50.1967 49 49.9327 49H44.2807ZM61.7885 49C61.5245 49 61.2965 48.916 61.1045 48.748C60.9365 48.556 60.8525 48.328 60.8525 48.064V24.376C60.8525 24.112 60.9365 23.896 61.1045 23.728C61.2965 23.536 61.5245 23.44 61.7885 23.44H67.0085C67.2725 23.44 67.4885 23.536 67.6565 23.728C67.8485 23.896 67.9445 24.112 67.9445 24.376V36.256L72.0485 30.892C72.1445 30.772 72.2765 30.64 72.4445 30.496C72.6125 30.352 72.8525 30.28 73.1645 30.28H79.2125C79.4525 30.28 79.6445 30.364 79.7885 30.532C79.9565 30.676 80.0405 30.868 80.0405 31.108C80.0405 31.204 80.0165 31.312 79.9685 31.432C79.9445 31.552 79.8965 31.636 79.8245 31.684L74.1005 38.704L80.7245 47.632C80.8445 47.824 80.9045 48.004 80.9045 48.172C80.9045 48.412 80.8205 48.616 80.6525 48.784C80.5085 48.928 80.3165 49 80.0765 49H73.8125C73.4525 49 73.1885 48.928 73.0205 48.784C72.8765 48.616 72.7445 48.484 72.6245 48.388L67.9445 41.908V48.064C67.9445 48.328 67.8485 48.556 67.6565 48.748C67.4885 48.916 67.2725 49 67.0085 49H61.7885ZM83.9018 49C83.6378 49 83.4098 48.916 83.2178 48.748C83.0498 48.556 82.9658 48.328 82.9658 48.064V31.216C82.9658 30.952 83.0498 30.736 83.2178 30.568C83.4098 30.376 83.6378 30.28 83.9018 30.28H89.2298C89.4938 30.28 89.7218 30.376 89.9138 30.568C90.1058 30.736 90.2018 30.952 90.2018 31.216V48.064C90.2018 48.328 90.1058 48.556 89.9138 48.748C89.7218 48.916 89.4938 49 89.2298 49H83.9018ZM83.9738 27.94C83.7098 27.94 83.4818 27.856 83.2898 27.688C83.1218 27.496 83.0378 27.268 83.0378 27.004V23.224C83.0378 22.96 83.1218 22.732 83.2898 22.54C83.4818 22.348 83.7098 22.252 83.9738 22.252H89.1578C89.4218 22.252 89.6498 22.348 89.8418 22.54C90.0338 22.732 90.1298 22.96 90.1298 23.224V27.004C90.1298 27.268 90.0338 27.496 89.8418 27.688C89.6498 27.856 89.4218 27.94 89.1578 27.94H83.9738ZM100.667 49C100.283 49 100.007 48.904 99.8393 48.712C99.6953 48.52 99.5633 48.316 99.4433 48.1L92.5673 31.396C92.5433 31.3 92.5313 31.204 92.5313 31.108C92.5313 30.892 92.6153 30.7 92.7833 30.532C92.9513 30.364 93.1433 30.28 93.3593 30.28H98.4713C98.8073 30.28 99.0593 30.376 99.2273 30.568C99.3953 30.736 99.5153 30.904 99.5873 31.072L103.043 40.828L106.535 31.072C106.607 30.904 106.727 30.736 106.895 30.568C107.063 30.376 107.315 30.28 107.651 30.28H112.727C112.967 30.28 113.159 30.364 113.303 30.532C113.471 30.7 113.555 30.892 113.555 31.108C113.555 31.204 113.543 31.3 113.519 31.396L106.679 48.1C106.583 48.316 106.439 48.52 106.247 48.712C106.079 48.904 105.815 49 105.455 49H100.667Z" fill="#291271"/>
</svg>
